<svg xmlns="http://www.w3.org/2000/svg" width="1200" height="630" viewBox="0 0 1200 630">
  <defs>
    <linearGradient id="bgGrad" x1="0%" y1="0%" x2="100%" y2="100%">
      <stop offset="0%" stop-color="#111827"/>
      <stop offset="50%" stop-color="#1E3A8A" stop-opacity="0.1"/>
      <stop offset="100%" stop-color="#111827"/>
    </linearGradient>
    <linearGradient id="logoGrad" x1="0%" y1="0%" x2="100%" y2="100%">
      <stop offset="0%" stop-color="#3B82F6"/>
      <stop offset="100%" stop-color="#6366F1"/>
    </linearGradient>
  </defs>
  <rect width="1200" height="630" fill="url(#bgGrad)"/>
  <rect x="100" y="215" width="200" height="200" rx="40" ry="40" fill="url(#logoGrad)"/>
  <path d="M149 350V200h18v120l80-120h25l-80 120 78 30h-34l-69-28v28h-18zm131 0l35-150h28l35 150h-20l-8-35h-42l-8 35h-20zm40-55h33l-16-68-17 68z" fill="#fff"/>
  <path d="M350 300V180h18l50 85 50-85h19v120h-19v-88l-50 83-50-83v88h-18zm149 0V180h19v58h62v-58h19v120h-19v-42h-62v42h-19zm122 0V180h88v20h-69v29h65v20h-65v31h71v20h-90zm80 0l44-60-39-60h21l28 45 28-45h21l-38 60 44 60h-22l-33-46-33 46h-21zm90 0v-20h8c9 0 15-1 19-4s5-10 5-20v-56h19v58c0 24-10 38-30 42h-21z" fill="#fff" transform="translate(0 -80) scale(0.9)"/>
  <path d="M355 380v-65h9c8 0 17 3 21 10 5 7 7 14 7 22 0 9-2 16-7 23-4 7-14 10-22 10h-8zm9-8h3c5 0 8-2 11-6 3-5 4-10 4-18 0-8-1-13-4-18-2-4-7-7-11-7h-3v49zm39 8v-65h9c7 0 12 0 15 2 3 1 6 4 7 7 1 3 2 6 2 9 0 4-1 8-3 11-2 4-5 6-9 6 3 1 5 3 7 4 1 2 3 5 5 9l8 17h-10l-6-15c-2-5-4-8-6-9l-6-1h-3v25h-10zm10-32h5c5 0 9-1 11-3s3-4 3-8-1-6-3-8c-2-2-6-3-11-3h-5v22zm35 32v-65h40v8h-31v20h29v8h-29v21h32v8h-41zm59 0v-8h15v-49h-15v-8h40v8h-14v49h14v8h-40zm59-52h-18v-13h47v13h-19v52h-10v-52zm25 52v-65h9v65h-9zm16 0v-65h9l30 48v-48h9v65h-9l-30-48v48h-9zm56 0v-65h40v8h-31v20h29v8h-29v21h32v8h-41zm42 0v-8c4-1 6-1 7-3 1-1 2-3 2-6v-39c0-3-1-5-2-6-1-2-3-2-7-3v-8h21c10 0 17 2 21 6 4 3 6 9 6 16 0 5-1 9-4 12s-7 5-13 6l18 25h-11l-17-24h-11v24h-10zm10-33h10c7 0 12-1 14-3 3-2 4-5 4-10s-1-9-4-11c-2-2-7-3-14-3h-10v27zm43 33v-65h9v28h28v-28h9v65h-9v-29h-28v29h-9zm59 0v-65h9v65h-9zm16 0v-65h14l16 49 17-49h13v65h-9v-52l-18 52h-7l-17-52v52h-9zm65 0v-65h10v65h-10zm18 0v-65h9l30 48v-48h9v65h-9l-30-48v48h-9zm56 0v-65h10c16 0 27 2 34 8 7 5 10 14 10 25s-3 20-10 25c-7 5-18 7-34 7h-10zm10-8h3c14 0 24-1 29-5 5-3 7-10 7-19s-2-16-7-20c-5-3-15-5-29-5h-3v49z" fill="#9CA3AF" transform="translate(0 25) scale(0.9)"/>
</svg> 